<?xml version="1.0" standalone="no"?>
<!DOCTYPE svg PUBLIC "-//W3C//DTD SVG 20010904//EN"
 "http://www.w3.org/TR/2001/REC-SVG-20010904/DTD/svg10.dtd">
<svg version="1.0" xmlns="http://www.w3.org/2000/svg"
 width="180.000000pt" height="180.000000pt" viewBox="0 0 180.000000 180.000000"
 preserveAspectRatio="xMidYMid meet">
<metadata>
Created by potrace 1.14, written by Peter Selinger 2001-2017
</metadata>
<g transform="translate(0.000000,180.000000) scale(0.100000,-0.100000)"
fill="#000000" stroke="none">
<path d="M366 1525 c-94 -19 -177 -88 -226 -190 -12 -24 -15 -104 -17 -431
l-3 -402 35 -69 c45 -90 115 -148 205 -169 62 -14 1017 -12 1083 3 63 14 118
45 158 89 81 91 85 120 84 549 -1 321 -3 366 -19 418 -25 76 -90 146 -171 183
l-60 28 -508 1 c-318 0 -528 -4 -561 -10z"/>
</g>
</svg>
